# xmcd
#
# Track frame offsets:
#	150
#	13840
#	26815
#	41205
#	53457
#	66667
#	80372
#	91492
#	102815
#	115132
#	128532
#	142055
#	155192
#	169885
#	183702
#	196387
#	210890
#	222732
#	235870
#	250900
#
# Disc length: 3527 seconds
#
# Revision: 1
# Processed by: cddbd v1.4PL0 Copyright (c) Steve Scherf et al.
# Submitted via: audiograbber 1.81.03
#
DISCID=290dc514
DTITLE=Blind Blake - King of the Blues
DYEAR=1900
DGENRE=Ragtime Blues
TTITLE0=Blind Arthur's Breakdown
TTITLE1=Police Dog Blues
TTITLE2=West Coast Blues
TTITLE3=Dry Bone Shuffle
TTITLE4=Too Tight Blues No.2
TTITLE5=Skeedle Loo Doo Blues
TTITLE6=Bad Feeling Blues
TTITLE7=Let Your Love Come Down
TTITLE8=You Gonna Quit Me Blues
TTITLE9=Diddie Wa Diddie
TTITLE10=Early Morning Blues
TTITLE11=Fightin' the Jug
TTITLE12=Sweet Papa Low Down
TTITLE13=Sea Board Stomp
TTITLE14=Black Dog Blues
TTITLE15=Hastings Street
TTITLE16=One Time Blues
TTITLE17=Panther Squall Blues
TTITLE18=Georgia Bound
TTITLE19=Rope Stretchin' Blues (part 1)
EXTD=
EXTT0=
EXTT1=
EXTT2=
EXTT3=
EXTT4=
EXTT5=
EXTT6=
EXTT7=
EXTT8=
EXTT9=
EXTT10=
EXTT11=
EXTT12=
EXTT13=
EXTT14=
EXTT15=
EXTT16=
EXTT17=
EXTT18=
EXTT19=
PLAYORDER=
